# xmcd CD database file
#
# Track frame offsets:
#	150
#	14962
#	36774
#	56272
#	74440
#	95083
#	118306
#	138083
#	159578
#	178516
#	203118
#	228151
#	242538
#
# Disc length: 3509 seconds
#
# Revision: 8
# Processed by: cddbd v1.5.1PL2 Copyright (c) Steve Scherf et al.
# Submitted via: CDex 1.51
#
DISCID=b20db30d
DTITLE=アニメ - 機動戦士ガンダム SEED DESTINY COMPLETE BEST
DYEAR=2005
DGENRE=Anime
TTITLE0=ignited -イグナイテッド-
TTITLE1=Reason
TTITLE2=PRIDE
TTITLE3=Life Goes On
TTITLE4=僕たちの行方
TTITLE5=I Wanna Go To A Place...
TTITLE6=Wings of Words
TTITLE7=君は僕に似ている
TTITLE8=Meteor -ミーティア-
TTITLE9=vestige -ヴェスティージ-
TTITLE10=Reason -NYLON Stay Cool Mix-
TTITLE11=PRIDE 〜"Phantom pain“norishirobreakmegamix〜
TTITLE12=Wings of Words (alas de palabras)
EXTD=YEAR: 2005
EXTT0=
EXTT1=
EXTT2=
EXTT3=
EXTT4=
EXTT5=
EXTT6=
EXTT7=
EXTT8=
EXTT9=
EXTT10=
EXTT11=
EXTT12=
PLAYORDER=
